<svg xmlns="http://www.w3.org/2000/svg" viewBox="0 0 24.27 27.93"><g id="Layer_2" data-name="Layer 2"><g id="Layer_1-2" data-name="Layer 1"><g id="Ultralight-S"><path fill="#8595a1" d="M.54,27.93a.55.55,0,0,0,.53-.54V14.52a1.91,1.91,0,0,1,0-1.16V.54A.54.54,0,0,0,.54,0,.53.53,0,0,0,0,.54V27.39A.53.53,0,0,0,.54,27.93Zm21.89-.72c.94,0,1.84-.68,1.84-2.22V2.91c0-1.54-.9-2.21-1.84-2.21A3.13,3.13,0,0,0,21,1.21L2,12.38a1.88,1.88,0,0,0-.88,1v1.16a1.94,1.94,0,0,0,.88,1L21,26.69A3.07,3.07,0,0,0,22.43,27.21Zm-.07-1.08a1.54,1.54,0,0,1-.86-.27L2.7,14.78c-.42-.23-.65-.47-.65-.84s.21-.56.65-.81L21.5,2.05a1.61,1.61,0,0,1,.86-.28c.35,0,.89.28.89,1.14V25C23.25,25.86,22.71,26.13,22.36,26.13Z"/></g></g></g></svg>
