<svg xmlns="http://www.w3.org/2000/svg" viewBox="0 0 26.25 30.25"><g id="Layer_2" data-name="Layer 2"><g id="Layer_1-2" data-name="Layer 1"><g id="Ultralight-S"><path fill="#8595a1" d="M1.28,30.25a2.22,2.22,0,0,0,1.19-.39L25.16,16.5c.7-.4,1.09-.77,1.09-1.37s-.39-1-1.09-1.38L2.47.4A2.24,2.24,0,0,0,1.28,0C.51,0,0,.56,0,1.54V28.72C0,29.7.51,30.25,1.28,30.25Zm.16-1.14c-.23,0-.39-.16-.39-.53V1.68c0-.4.16-.54.39-.54A1,1,0,0,1,2,1.3l22.7,13.25c.23.13.48.3.48.58s-.25.44-.48.58L2,29A.87.87,0,0,1,1.44,29.11Z"/></g></g></g></svg>
