<svg xmlns="http://www.w3.org/2000/svg" viewBox="0 0 35.49 35.47"><g id="Layer_2" data-name="Layer 2"><g id="Layer_1-2" data-name="Layer 1"><g id="Ultralight-S"><path fill="#8595a1" d="M17.73,35.47A17.74,17.74,0,1,0,0,17.73,17.82,17.82,0,0,0,17.73,35.47ZM6.7,22.74A.77.77,0,0,1,7.45,22H9.87a3.15,3.15,0,0,0,2.63-1.51l2.35-2.79-2.35-2.8A3.19,3.19,0,0,0,9.87,13.4H7.45a.76.76,0,0,1-.75-.76.72.72,0,0,1,.75-.75H9.77a4.36,4.36,0,0,1,3.73,1.86l2.33,2.8,2.35-2.82a4.32,4.32,0,0,1,3.72-1.84h1.42V9.45A.63.63,0,0,1,24,8.8a.76.76,0,0,1,.53.18l3.8,2.89a.85.85,0,0,1,0,1.33l-3.8,2.88a.79.79,0,0,1-.53.21.66.66,0,0,1-.7-.7V13.38H21.81a3.21,3.21,0,0,0-2.66,1.49L16.8,17.69l2.35,2.81A3.2,3.2,0,0,0,21.81,22h1.51V19.8a.64.64,0,0,1,.7-.67.77.77,0,0,1,.53.19l3.8,2.86a.9.9,0,0,1,0,1.37l-3.8,2.86a.77.77,0,0,1-.53.19.62.62,0,0,1-.7-.65V23.5H21.9a4.28,4.28,0,0,1-3.72-1.86l-2.35-2.79L13.5,21.64a4.31,4.31,0,0,1-3.73,1.84H7.45A.72.72,0,0,1,6.7,22.74Z"/></g></g></g></svg>
