<svg xmlns="http://www.w3.org/2000/svg" >
<defs/><g id="layer0">  <g id="Light-S" transform="translate(537.397, 434.94)" fill="none">
   <path id="shape214" transform="translate(-140.972, 1.73993)" fill="#8595a1" d="M9.6555 20.3487C14.9448 20.3487 19.3219 15.7536 19.3219 10.1744C19.3219 4.60078 14.934 0 9.6555 0C4.36613 0 0 4.59505 0 10.1744C0.00543054 15.7536 4.38246 20.3487 9.6555 20.3487ZM9.6555 18.8495C5.0993 18.8495 1.43909 14.9811 1.43909 10.1801C1.43909 5.37902 5.08297 1.5107 9.6555 1.5107C14.2117 1.5107 17.8828 5.37902 17.8936 10.1801C17.899 14.9811 14.228 18.8495 9.6555 18.8495ZM8.62371 14.9697C8.90611 14.9697 9.13416 14.8267 9.29161 14.5577L13.799 7.10718C13.8967 6.94123 13.9945 6.73522 13.9945 6.54066C13.9945 6.15726 13.6632 5.88831 13.3102 5.88831C13.093 5.88831 12.8812 6.03137 12.7237 6.28888L10.3476 10.2727L8.58026 13.2358L6.53296 10.5234C6.33747 10.2544 6.14194 10.1629 5.91385 10.1629C5.55001 10.1629 5.26761 10.4833 5.26761 10.8667C5.26761 11.0614 5.33824 11.2502 5.46314 11.4333L7.90141 14.552C8.12407 14.8438 8.34131 14.9697 8.62371 14.9697Z"/>
  </g>
 </g>
</svg>
