<svg xmlns="http://www.w3.org/2000/svg" viewBox="0 0 42.17 32.02"><g id="Layer_2" data-name="Layer 2"><g id="Layer_1-2" data-name="Layer 1"><g id="Ultralight-S"><path fill="#8595a1" d="M4.77,32H37.42c3.12,0,4.75-1.7,4.75-4.74V4.75C42.17,1.68,40.54,0,37.42,0H4.77C1.65,0,0,1.65,0,4.75V27.28C0,30.37,1.65,32,4.77,32Zm.05-1c-2.49,0-3.77-1.28-3.77-3.77V4.82c0-2.49,1.28-3.77,3.77-3.77H37.38c2.37,0,3.74,1.28,3.74,3.77V27.21c0,2.49-1.37,3.77-3.74,3.77Zm11.35-8.2H18c.74,0,1.07-.39,1.07-1V10.12a.93.93,0,0,0-1.07-1H16.17a.93.93,0,0,0-1,1V21.78A.93.93,0,0,0,16.17,22.78Zm7.94,0H26a1,1,0,0,0,1.07-1V10.12a1,1,0,0,0-1.07-1H24.11a.93.93,0,0,0-1.05,1V21.78A.93.93,0,0,0,24.11,22.78Z"/></g></g></g></svg>
