<svg xmlns="http://www.w3.org/2000/svg" viewBox="0 0 24.27 27.93"><g id="Layer_2" data-name="Layer 2"><g id="Layer_1-2" data-name="Layer 1"><g id="Ultralight-S"><path fill="#8595a1" d="M1.82,27.21a3,3,0,0,0,1.48-.52l19-11.17a1.89,1.89,0,0,0,.88-1V27.39a.54.54,0,1,0,1.07,0V.54a.54.54,0,1,0-1.07,0V13.36a1.88,1.88,0,0,0-.88-1L3.3,1.21A3.09,3.09,0,0,0,1.82.7C.91.7,0,1.37,0,2.91V25C0,26.53.91,27.21,1.82,27.21Zm.09-1.08C1.54,26.13,1,25.86,1,25V2.91c0-.86.54-1.14.91-1.14a1.61,1.61,0,0,1,.86.28l18.8,11.08c.45.25.63.44.63.81s-.21.61-.63.84L2.77,25.86A1.52,1.52,0,0,1,1.91,26.13Z"/></g></g></g></svg>
