<svg xmlns="http://www.w3.org/2000/svg" viewBox="0 0 38.18 30.98"><g id="Layer_2" data-name="Layer 2"><g id="Layer_1-2" data-name="Layer 1"><g id="Ultralight-S"><path fill="#8595a1" d="M0,24.27a1.23,1.23,0,0,0,1.28,1.28H5.33c2.77,0,4.4-.83,6.42-3.21l4.1-4.89L20,22.34c2,2.4,3.65,3.21,6.42,3.21h2.54v4.28A1.09,1.09,0,0,0,30.11,31a1.42,1.42,0,0,0,.91-.33l6.59-5a1.42,1.42,0,0,0,0-2.28l-6.59-5a1.29,1.29,0,0,0-.91-.35,1.1,1.1,0,0,0-1.18,1.16V23H26.27c-1.79,0-3-.68-4.63-2.63l-4.12-4.91,4.12-4.94c1.66-1.93,2.84-2.6,4.63-2.6h2.66v3.91A1.1,1.1,0,0,0,30.11,13a1.42,1.42,0,0,0,.91-.33l6.59-5a1.44,1.44,0,0,0,0-2.3L31,.33A1.37,1.37,0,0,0,30.11,0a1.08,1.08,0,0,0-1.18,1.14V5.38H26.39c-2.77,0-4.4.83-6.42,3.21L15.85,13.5l-4.1-4.89C9.73,6.24,8.1,5.4,5.33,5.4h-4A1.23,1.23,0,0,0,0,6.68,1.28,1.28,0,0,0,1.28,8H5.47c1.77,0,3,.67,4.61,2.61l4.12,4.91-4.12,4.88C8.42,22.32,7.24,23,5.47,23H1.28A1.28,1.28,0,0,0,0,24.27Z"/></g></g></g></svg>
