<svg xmlns="http://www.w3.org/2000/svg" viewBox="0 0 35.49 35.47"><g id="Layer_2" data-name="Layer 2"><g id="Layer_1-2" data-name="Layer 1"><g id="Ultralight-S"><path fill="#8595a1" d="M17.73,35.47A17.74,17.74,0,1,0,0,17.73,17.82,17.82,0,0,0,17.73,35.47ZM7.21,17.29v-.72c0-3,2-4.84,5.24-4.84h6.84V9.19A.68.68,0,0,1,20,8.47a.91.91,0,0,1,.56.21l3.94,3a.89.89,0,0,1,0,1.42l-3.94,3a.83.83,0,0,1-.56.23.68.68,0,0,1-.72-.72V13.27h-7.1a3.17,3.17,0,0,0-3.37,3.49v.53a.83.83,0,0,1-.81.82A.81.81,0,0,1,7.21,17.29Zm3.91,6.59a.9.9,0,0,1,0-1.42l3.94-3a.83.83,0,0,1,.56-.23.68.68,0,0,1,.72.72v2.32h7.1a3.18,3.18,0,0,0,3.37-3.49v-.53a.82.82,0,1,1,1.63,0V19c0,3-2,4.86-5.26,4.86H16.34v2.54a.68.68,0,0,1-.72.72.91.91,0,0,1-.56-.21Z"/></g></g></g></svg>
