<svg xmlns="http://www.w3.org/2000/svg" viewBox="0 0 30.39 27.86"><g id="Layer_2" data-name="Layer 2"><g id="Layer_1-2" data-name="Layer 1"><g id="Ultralight-S"><path fill="#8595a1" d="M1.68,27.86H5.52c1.18,0,1.67-.49,1.67-1.7V14.48a1.66,1.66,0,0,1-.09-.59,1.6,1.6,0,0,1,.09-.58V1.68C7.19.47,6.7,0,5.52,0H1.68C.49,0,0,.47,0,1.68V26.16C0,27.37.49,27.86,1.68,27.86Zm26.9-.7c.91,0,1.81-.68,1.81-2.21V2.86c0-1.53-.9-2.21-1.81-2.21a3.24,3.24,0,0,0-1.49.51l-19,11.17a1.9,1.9,0,0,0-.89,1v1.17a2,2,0,0,0,.89,1l19,11.17A3.16,3.16,0,0,0,28.58,27.16Z"/></g></g></g></svg>
