<svg xmlns="http://www.w3.org/2000/svg" viewBox="0 0 35.49 38.91"><g id="Layer_2" data-name="Layer 2"><g id="Layer_1-2" data-name="Layer 1"><g id="Ultralight-S"><path fill="#8595a1" d="M17.73,38.91a17.71,17.71,0,0,0,8.92-33,.52.52,0,0,0-.77.14.58.58,0,0,0,.21.74,16.65,16.65,0,1,1-11.41-2v3.7c0,.61.45.86,1,.45l5.42-3.8c.49-.35.49-.79,0-1.12L15.71.21c-.58-.42-1-.18-1,.44V3.7a17.74,17.74,0,0,0,3.05,35.21ZM12,28.3a.53.53,0,0,0,.51-.56V14.66a.57.57,0,0,0-.6-.58,1.21,1.21,0,0,0-.75.28L7.84,16.55a.5.5,0,0,0-.28.44.48.48,0,0,0,.49.49.32.32,0,0,0,.28-.12l3.1-2h.09V27.74A.51.51,0,0,0,12,28.3Zm9.75.35A4.59,4.59,0,0,0,26.72,24a4.38,4.38,0,0,0-4.54-4.52,4.32,4.32,0,0,0-3.42,1.66h-.1l.49-5.71h6.61a.47.47,0,0,0,.49-.48.45.45,0,0,0-.49-.45H18.94a.7.7,0,0,0-.79.73l-.46,6.42a.51.51,0,0,0,.56.65.82.82,0,0,0,.62-.28,3.94,3.94,0,0,1,3.19-1.58A3.43,3.43,0,0,1,25.67,24a3.66,3.66,0,0,1-3.82,3.73,3.5,3.5,0,0,1-3.46-2.33.53.53,0,0,0-.54-.42.42.42,0,0,0-.44.47,1.52,1.52,0,0,0,0,.32A4.35,4.35,0,0,0,21.78,28.65Z"/></g></g></g></svg>
