<svg xmlns="http://www.w3.org/2000/svg" viewBox="0 0 35.35 31.37"><g id="Layer_2" data-name="Layer 2"><g id="Layer_1-2" data-name="Layer 1"><g id="Ultralight-S"><path fill="#8595a1" d="M34.05,11.57a1.24,1.24,0,0,0,1.3-1.31V1.54A1.45,1.45,0,0,0,33.79,0a3.13,3.13,0,0,0-2.05.77L29.51,2.35a1.07,1.07,0,0,0-.61.93.87.87,0,0,0,.91.89,1.23,1.23,0,0,0,.82-.31l2-1.44h0v7.84A1.26,1.26,0,0,0,34.05,11.57ZM0,15.08a1.33,1.33,0,0,0,2.65,0v-.91c0-3.6,2.14-5.82,5.66-5.82h8.12v3.89a1.11,1.11,0,0,0,1.19,1.16,1.43,1.43,0,0,0,.9-.34l6.59-5a1.41,1.41,0,0,0,0-2.28l-6.59-5a1.4,1.4,0,0,0-.9-.32,1.09,1.09,0,0,0-1.19,1.14V5.82H8.73c-5.47,0-8.73,3-8.73,8Zm15.2,4.47A1.11,1.11,0,0,0,14,18.39a1.43,1.43,0,0,0-.91.34l-6.58,5a1.41,1.41,0,0,0,0,2.28l6.58,5a1.41,1.41,0,0,0,.91.32,1.09,1.09,0,0,0,1.19-1.14V26H26.62c5.47,0,8.73-3,8.73-8V16.69A1.34,1.34,0,0,0,34,15.36a1.32,1.32,0,0,0-1.3,1.33v.9c0,3.61-2.16,5.82-5.68,5.82H15.2Z"/></g></g></g></svg>
