<svg xmlns="http://www.w3.org/2000/svg" viewBox="0 0 42.17 32.02"><g id="Layer_2" data-name="Layer 2"><g id="Layer_1-2" data-name="Layer 1"><g id="Ultralight-S"><path fill="#8595a1" d="M4.77,32H37.42c3.12,0,4.75-1.7,4.75-4.74V4.75C42.17,1.68,40.54,0,37.42,0H4.77C1.65,0,0,1.65,0,4.75V27.28C0,30.37,1.65,32,4.77,32Zm.05-1c-2.49,0-3.77-1.28-3.77-3.77V4.82c0-2.49,1.28-3.77,3.77-3.77H37.38c2.37,0,3.74,1.28,3.74,3.77V27.21c0,2.49-1.37,3.77-3.74,3.77ZM28,16.78a.89.89,0,0,0,0-1.56L17.55,8.82c-.61-.35-1.33-.05-1.33.58V22.53c0,.63.72.93,1.33.58Z"/></g></g></g></svg>
