<svg xmlns="http://www.w3.org/2000/svg" viewBox="0 0 35.49 38.94"><g id="Layer_2" data-name="Layer 2"><g id="Layer_1-2" data-name="Layer 1"><g id="Ultralight-S"><path fill="#8595a1" d="M17.73,38.94a17.74,17.74,0,0,0,3.1-35.21V.65c0-.62-.47-.86-1-.44L14.36,4c-.49.33-.49.77,0,1.12l5.42,3.8c.58.41,1,.16,1-.45V4.8a16.69,16.69,0,1,1-11.45,2A.54.54,0,0,0,9.59,6a.5.5,0,0,0-.75-.14,17.72,17.72,0,0,0,8.89,33.05ZM12,28.32a.52.52,0,0,0,.51-.55V14.69a.57.57,0,0,0-.6-.59,1.21,1.21,0,0,0-.75.28L7.84,16.57a.53.53,0,0,0-.28.44.48.48,0,0,0,.49.49.34.34,0,0,0,.28-.11l3.1-2h.09V27.77A.51.51,0,0,0,12,28.32Zm9.75.35A4.59,4.59,0,0,0,26.72,24a4.37,4.37,0,0,0-4.54-4.51,4.31,4.31,0,0,0-3.42,1.65h-.1l.49-5.7h6.61a.48.48,0,0,0,.49-.49.44.44,0,0,0-.49-.44H18.94a.69.69,0,0,0-.79.72l-.46,6.42a.51.51,0,0,0,.56.65.82.82,0,0,0,.62-.28,3.94,3.94,0,0,1,3.19-1.58A3.43,3.43,0,0,1,25.67,24a3.66,3.66,0,0,1-3.82,3.72,3.5,3.5,0,0,1-3.46-2.33.53.53,0,0,0-.54-.42.42.42,0,0,0-.44.47,1.47,1.47,0,0,0,0,.32A4.35,4.35,0,0,0,21.78,28.67Z"/></g></g></g></svg>
