<?xml version="1.0" standalone="no"?>
<!DOCTYPE svg PUBLIC "-//W3C//DTD SVG 20010904//EN" "http://www.w3.org/TR/2001/REC-SVG-20010904/DTD/svg10.dtd">
<!-- Created using Karbon, part of Calligra: http://www.calligra.org/karbon -->
<svg xmlns="http://www.w3.org/2000/svg" xmlns:xlink="http://www.w3.org/1999/xlink">
<defs/>
<g id="layer0"/><path id="shape9" transform="translate(425.444, 526.429)" fill="#8595a1" d="M12.3587 3.78642C13.2457 3.78642 13.9867 3.08862 14.1273 2.19635L17.1183 2.19635C17.2697 2.19635 17.3833 2.0648 17.3833 1.91608C17.3833 1.76737 17.2697 1.63582 17.1183 1.63582L14.1381 1.63582C14.0137 0.720677 13.2619 0 12.3587 0C11.4554 0 10.7091 0.720677 10.5793 1.63582L0.265022 1.63582C0.113581 1.63582 0 1.76737 0 1.91608C0 2.0648 0.113581 2.19635 0.265022 2.19635L10.5901 2.19635C10.7307 3.08862 11.4717 3.78642 12.3587 3.78642ZM12.3587 3.16297C11.6772 3.16297 11.158 2.60244 11.158 1.88176C11.158 1.17253 11.6772 0.612003 12.3587 0.612003C13.0402 0.612003 13.5594 1.17253 13.5594 1.88176C13.5594 2.60244 13.0402 3.16297 12.3587 3.16297ZM0.259614 7.49846C0.11899 7.49846 0.00540862 7.61858 0.00540862 7.77873C0.00540862 7.92744 0.11899 8.04754 0.259614 8.04754L3.6995 8.04754C3.82389 8.97413 4.57569 9.68333 5.47897 9.68333C6.38216 9.68333 7.12856 8.97413 7.24755 8.04754L17.1183 8.04754C17.2697 8.04754 17.3833 7.92744 17.3833 7.77873C17.3833 7.61858 17.2697 7.49846 17.1183 7.49846L7.24755 7.49846C7.12316 6.59476 6.37139 5.89696 5.47897 5.89696C4.5865 5.89696 3.84011 6.59476 3.6995 7.49846ZM5.47897 9.05993C4.79746 9.05993 4.27823 8.48797 4.27823 7.77873C4.27823 7.05805 4.79746 6.50896 5.47897 6.50896C6.14963 6.50896 6.67963 7.05805 6.67963 7.77873C6.67963 8.48797 6.14963 9.05993 5.47897 9.05993ZM12.3587 15.5461C13.2619 15.5461 14.0083 14.8253 14.1381 13.9101L17.1183 13.9101C17.2697 13.9101 17.3833 13.79 17.3833 13.6414C17.3833 13.4812 17.2697 13.3611 17.1183 13.3611L14.1273 13.3611C14.0029 12.4573 13.2511 11.7596 12.3587 11.7596C11.4717 11.7596 10.7199 12.4573 10.5901 13.3611L0.265022 13.3611C0.113581 13.3611 0 13.4812 0 13.6414C0 13.79 0.113581 13.9101 0.265022 13.9101L10.5793 13.9101C10.7091 14.8253 11.4609 15.5461 12.3587 15.5461ZM12.3587 14.9225C11.6772 14.9225 11.158 14.3507 11.158 13.6414C11.158 12.9207 11.6772 12.3716 12.3587 12.3716C13.0402 12.3716 13.5594 12.9207 13.5594 13.6414C13.5594 14.3507 13.0402 14.9225 12.3587 14.9225Z"/>
</svg>
