<svg xmlns="http://www.w3.org/2000/svg" viewBox="0 0 35.49 38.94"><g id="Layer_2" data-name="Layer 2"><g id="Layer_1-2" data-name="Layer 1"><g id="Ultralight-S"><path fill="#8595a1" d="M17.73,38.94a17.74,17.74,0,0,0,3.1-35.21V.65c0-.62-.47-.86-1-.44L14.36,4c-.49.33-.49.77,0,1.12l5.42,3.8c.58.41,1,.16,1-.45V4.8a16.69,16.69,0,1,1-11.45,2A.54.54,0,0,0,9.59,6a.5.5,0,0,0-.75-.14,17.72,17.72,0,0,0,8.89,33.05Zm6.38-10.29c3,0,4.93-2.86,4.93-7.24s-2-7.28-4.93-7.28-5,2.91-5,7.28S21.15,28.65,24.11,28.65Zm-12.33,0c2.79,0,4.79-1.68,4.79-4a3.56,3.56,0,0,0-3.28-3.49v0a3.44,3.44,0,0,0,2.77-3.4c0-2.05-1.77-3.56-4.28-3.56A4.11,4.11,0,0,0,7.59,17a1.74,1.74,0,0,0,0,.44.47.47,0,0,0,.49.51c.32,0,.49-.11.51-.41a3.07,3.07,0,0,1,3.24-2.45c1.9,0,3.23,1.14,3.23,2.73a3,3,0,0,1-3.14,2.88H10.54a.45.45,0,0,0-.49.47.44.44,0,0,0,.49.46H12c2,0,3.53,1.31,3.53,3,0,1.84-1.53,3.12-3.74,3.12A3.44,3.44,0,0,1,8.26,25.3c-.09-.33-.21-.47-.53-.47a.49.49,0,0,0-.49.54,1.36,1.36,0,0,0,.07.46C7.77,27.46,9.54,28.65,11.78,28.65Zm12.33-.95c-2.35,0-3.93-2.54-3.93-6.29s1.58-6.3,3.93-6.3S28,17.64,28,21.41,26.44,27.7,24.11,27.7Z"/></g></g></g></svg>
