<svg xmlns="http://www.w3.org/2000/svg" viewBox="0 0 35.6 35.57"><defs><style>.cls-1{fill:#191919;}</style></defs><g id="Layer_2" data-name="Layer 2"><g id="Layer_1-2" data-name="Layer 1"><g id="Ultralight-S"><path class="cls-1" fill="#8595a1" d="M17.79,35.57A17.79,17.79,0,1,0,0,17.79,17.86,17.86,0,0,0,17.79,35.57Zm0-1A16.74,16.74,0,1,1,34.52,17.79,16.75,16.75,0,0,1,17.79,34.52Zm-1.94-8a.8.8,0,0,0,.54-.28l9.8-15.18a1.22,1.22,0,0,0,.12-.37.58.58,0,0,0-.54-.54.69.69,0,0,0-.49.31L15.83,25.12,10.53,19a.63.63,0,0,0-.52-.24.52.52,0,0,0-.51.52.72.72,0,0,0,.19.46l5.62,6.52A.69.69,0,0,0,15.85,26.52Z"/></g></g></g></svg>
