<svg xmlns="http://www.w3.org/2000/svg" viewBox="0 0 68.7 470"><defs><style>.cls-1,.cls-2{fill:#fff;}.cls-2{opacity:0.15;}.cls-3,.cls-7{opacity:0.5;}.cls-3,.cls-6{font-size:10px;}.cls-3,.cls-5{fill:#191919;}.cls-3{font-family:Barlow-Medium, Barlow;font-weight:500;}.cls-4{opacity:0;}.cls-6{fill:#b2b2b2;font-family:Barlow-Light, Barlow;font-weight:300;}</style></defs><g id="Layer_2" data-name="Layer 2"><g id="Layer_1-2" data-name="Layer 1"><rect class="cls-1" width="68.7" height="156"/><rect class="cls-2" y="157" width="68.7" height="156"/><rect class="cls-2" y="314" width="68.7" height="156"/><text class="cls-3" transform="translate(19.47 115.02)">PreSet</text><g id="Ultralight-S" class="cls-4"><path class="cls-5" d="M34.34,95.79A17.79,17.79,0,1,0,16.55,78,17.87,17.87,0,0,0,34.34,95.79Zm0-1.05A16.74,16.74,0,1,1,51.08,78,16.75,16.75,0,0,1,34.34,94.74Zm-1.94-8a.78.78,0,0,0,.54-.28l9.8-15.17a1.27,1.27,0,0,0,.12-.38.57.57,0,0,0-.54-.53.73.73,0,0,0-.49.3L32.38,85.33l-5.3-6.14a.63.63,0,0,0-.51-.23.52.52,0,0,0-.52.51.74.74,0,0,0,.19.47l5.63,6.51A.63.63,0,0,0,32.4,86.73Z"/></g><text class="cls-6" transform="translate(25.61 260.57)">Play</text><g id="Ultralight-S-2" data-name="Ultralight-S" class="cls-7"><path class="cls-1" d="M34.34,242.08a17.79,17.79,0,1,0-17.79-17.79A17.87,17.87,0,0,0,34.34,242.08Zm0-1.05a16.74,16.74,0,1,1,16.74-16.74A16.75,16.75,0,0,1,34.34,241Zm6.93-15.9a.86.86,0,0,0,0-1.54l-10.48-6.42a.83.83,0,0,0-1.33.59v13.16a.83.83,0,0,0,1.33.58Z"/></g><text class="cls-6" transform="translate(18.61 426.05)">Setting</text><g id="Ultralight-S-3" data-name="Ultralight-S" class="cls-7"><path class="cls-1" d="M41.13,385a3.33,3.33,0,0,0,3.27-2.78h5.53a.5.5,0,0,0,.49-.49.5.5,0,0,0-.49-.49H44.42a3.32,3.32,0,0,0-6.58,0H18.78a.5.5,0,0,0-.49.49.49.49,0,0,0,.49.49H37.86A3.34,3.34,0,0,0,41.13,385Zm0-1.09a2.23,2.23,0,1,1,2.22-2.24A2.19,2.19,0,0,1,41.13,383.94Zm-22.37,7.58a.47.47,0,0,0-.47.49.47.47,0,0,0,.47.47h6.36a3.33,3.33,0,0,0,3.29,2.86,3.29,3.29,0,0,0,3.26-2.86H49.93a.48.48,0,1,0,0-1H31.67a3.3,3.3,0,0,0-3.26-2.8,3.34,3.34,0,0,0-3.29,2.8Zm9.65,2.73A2.21,2.21,0,0,1,26.19,392a2.22,2.22,0,0,1,4.44,0A2.23,2.23,0,0,1,28.41,394.25Zm12.72,11.34a3.35,3.35,0,0,0,3.29-2.86h5.51a.48.48,0,1,0,0-1H44.4a3.31,3.31,0,0,0-6.54,0H18.78a.48.48,0,1,0,0,1H37.84A3.36,3.36,0,0,0,41.13,405.59Zm0-1.09a2.21,2.21,0,0,1-2.22-2.24,2.22,2.22,0,1,1,4.44,0A2.21,2.21,0,0,1,41.13,404.5Z"/></g></g></g></svg>