<svg xmlns="http://www.w3.org/2000/svg" viewBox="0 0 21.89 16.62"><defs><style>.cls-1{opacity:0.1;}.cls-2{fill:#fff;}</style></defs><g id="Layer_2" data-name="Layer 2"><g id="Layer_1-2" data-name="Layer 1"><g id="Ultralight-S" class="cls-1"><path class="cls-2" d="M2.48,16.62H19.42a2.21,2.21,0,0,0,2.47-2.46V2.46A2.21,2.21,0,0,0,19.42,0H2.48A2.21,2.21,0,0,0,0,2.46v11.7A2.21,2.21,0,0,0,2.48,16.62Z"/></g><g id="Ultralight-S-2" data-name="Ultralight-S"><path class="cls-2" d="M10.94,8.37a.17.17,0,0,0,.17-.16V2.82a.18.18,0,0,0-.17-.17.17.17,0,0,0-.16.17V8.21A.16.16,0,0,0,10.94,8.37Zm0,5.6a5.48,5.48,0,0,0,3.5-9.69.17.17,0,1,0-.22.26,5.14,5.14,0,1,1-6.56,0,.17.17,0,1,0-.22-.26A5.48,5.48,0,0,0,10.94,14Z"/></g></g></g></svg>