<svg xmlns="http://www.w3.org/2000/svg" viewBox="0 0 268.81 79.77"><defs><style>.cls-1,.cls-11{opacity:0.5;}.cls-2,.cls-7{fill:#fff;}.cls-3{fill:#241f20;}.cls-4,.cls-9{fill:red;}.cls-10,.cls-11,.cls-5{fill:none;stroke:#fff;stroke-miterlimit:10;}.cls-5{stroke-width:0.43px;opacity:0.2;}.cls-6,.cls-7,.cls-9{font-size:10.46px;}.cls-6,.cls-8{fill:#989898;}.cls-6,.cls-7{font-family:Barlow-Regular, Barlow;}.cls-9{font-family:Barlow-Bold, Barlow;font-weight:700;}.cls-10,.cls-11{stroke-width:0.98px;}.cls-10{opacity:0.51;}</style></defs><g id="Layer_2" data-name="Layer 2"><g id="Layer_1-2" data-name="Layer 1"><g class="cls-1"><circle class="cls-2" cx="188.81" cy="69.81" r="8.51"/><path class="cls-2" d="M136.14,69.61,121.23,61a.83.83,0,0,0-1.24.72V78.94a.83.83,0,0,0,1.24.72l14.91-8.61A.83.83,0,0,0,136.14,69.61Z"/><path class="cls-3" d="M188.44,69.09l-3.83-2.21a.83.83,0,0,0-1.25.72V72a.83.83,0,0,0,1.25.72l3.83-2.21A.83.83,0,0,0,188.44,69.09Z"/><path class="cls-3" d="M194.09,69.09l-3.83-2.21a.83.83,0,0,0-1.25.72V72a.83.83,0,0,0,1.25.72l3.83-2.21A.83.83,0,0,0,194.09,69.09Z"/><circle class="cls-4" cx="63.87" cy="69.76" r="8.51"/></g><rect class="cls-5" x="55.35" y="20.95" width="143.91" height="26.59" rx="8.47"/><text class="cls-6" transform="translate(66.84 37.76)">2x</text><text class="cls-6" transform="translate(93.29 37.76)">4x</text><text class="cls-7" transform="translate(120.04 37.76)">8x</text><text class="cls-6" transform="translate(145.75 37.76)">10x</text><circle class="cls-8" cx="176.53" cy="35.44" r="1.19"/><circle class="cls-8" cx="181.1" cy="35.44" r="1.19"/><circle class="cls-8" cx="185.67" cy="35.44" r="1.19"/><text class="cls-9" transform="translate(106.66 8.89)">10:09:01</text><g class="cls-1"><path class="cls-2" d="M6.07,69.09,9.9,66.88a.83.83,0,0,1,1.25.72V72a.83.83,0,0,1-1.25.72L6.07,70.53A.83.83,0,0,1,6.07,69.09Z"/><path class="cls-2" d="M.42,69.09l3.83-2.21a.83.83,0,0,1,1.24.72V72a.83.83,0,0,1-1.24.72L.42,70.53A.83.83,0,0,1,.42,69.09Z"/></g><path class="cls-10" d="M251.3,71.2a8.51,8.51,0,1,1,17,0"/><line class="cls-11" x1="257.85" y1="66.17" x2="260.14" y2="71.2"/></g></g></svg>