<svg xmlns="http://www.w3.org/2000/svg" viewBox="0 0 284.63 81.79"><defs><style>.cls-1{opacity:0.5;}.cls-2{fill:#bbda2d;}.cls-3{fill:#84831f;}.cls-4{fill:#ff935f;}.cls-5{fill:#ff0007;}.cls-6{fill:#ddbc46;}.cls-7{fill:#004e82;}.cls-8{fill:#fd7507;}.cls-9{fill:#7cc80d;}.cls-10{fill:none;stroke:#c01534;stroke-miterlimit:10;}.cls-11{fill:#81194c;}.cls-12{fill:#c01534;}.cls-13{font-size:14px;fill:#fff;font-family:Barlow-Thin, Barlow;font-weight:200;}</style></defs><g id="Layer_2" data-name="Layer 2"><g id="Layer_1-2" data-name="Layer 1"><g id="Ultralight-S" class="cls-1"><path class="cls-2" d="M71.51,30h30.56c2.92,0,4.44-1.59,4.44-4.45V4.44C106.51,1.57,105,0,102.07,0H71.51C68.59,0,67,1.55,67,4.44V25.53C67,28.43,68.59,30,71.51,30Z"/></g><g id="Ultralight-S-2" data-name="Ultralight-S" class="cls-1"><path class="cls-3" d="M130.88,30h30.56c2.92,0,4.45-1.59,4.45-4.45V4.44c0-2.87-1.53-4.44-4.45-4.44H130.88c-2.92,0-4.47,1.55-4.47,4.44V25.53C126.41,28.43,128,30,130.88,30Z"/></g><g id="Ultralight-S-3" data-name="Ultralight-S" class="cls-1"><path class="cls-4" d="M190.25,30h30.56c2.92,0,4.45-1.59,4.45-4.45V4.44c0-2.87-1.53-4.44-4.45-4.44H190.25c-2.92,0-4.47,1.55-4.47,4.44V25.53C185.78,28.43,187.33,30,190.25,30Z"/></g><g id="Ultralight-S-4" data-name="Ultralight-S" class="cls-1"><path class="cls-5" d="M249.62,30h30.57c2.91,0,4.44-1.59,4.44-4.45V4.44c0-2.87-1.53-4.44-4.44-4.44H249.62c-2.92,0-4.46,1.55-4.46,4.44V25.53C245.16,28.43,246.7,30,249.62,30Z"/></g><g id="Ultralight-S-5" data-name="Ultralight-S" class="cls-1"><path class="cls-6" d="M71.51,79.85h30.56c2.92,0,4.44-1.59,4.44-4.44V54.32c0-2.88-1.52-4.45-4.44-4.45H71.51c-2.92,0-4.47,1.55-4.47,4.45V75.41C67,78.3,68.59,79.85,71.51,79.85Z"/></g><g id="Ultralight-S-6" data-name="Ultralight-S" class="cls-1"><path class="cls-7" d="M130.88,79.85h30.56c2.92,0,4.45-1.59,4.45-4.44V54.32c0-2.88-1.53-4.45-4.45-4.45H130.88c-2.92,0-4.47,1.55-4.47,4.45V75.41C126.41,78.3,128,79.85,130.88,79.85Z"/></g><g id="Ultralight-S-7" data-name="Ultralight-S" class="cls-1"><path class="cls-8" d="M190.25,79.85h30.56c2.92,0,4.45-1.59,4.45-4.44V54.32c0-2.88-1.53-4.45-4.45-4.45H190.25c-2.92,0-4.47,1.55-4.47,4.45V75.41C185.78,78.3,187.33,79.85,190.25,79.85Z"/></g><g id="Ultralight-S-8" data-name="Ultralight-S" class="cls-1"><path class="cls-9" d="M249.62,79.85h30.57c2.91,0,4.44-1.59,4.44-4.44V54.32c0-2.88-1.53-4.45-4.44-4.45H249.62c-2.92,0-4.46,1.55-4.46,4.45V75.41C245.16,78.3,246.7,79.85,249.62,79.85Z"/></g><g id="Ultralight-S-9" data-name="Ultralight-S"><path class="cls-10" d="M5.4,81.29H38.9c3.2,0,4.87-1.74,4.87-4.87V53.3c0-3.15-1.67-4.87-4.87-4.87H5.4c-3.2,0-4.9,1.7-4.9,4.87V76.42C.5,79.6,2.2,81.29,5.4,81.29Z"/></g><g id="Ultralight-S-10" data-name="Ultralight-S" class="cls-1"><path class="cls-11" d="M6.86,30H37.43c2.92,0,4.44-1.59,4.44-4.45V4.44C41.87,1.57,40.35,0,37.43,0H6.86C4,0,2.4,1.55,2.4,4.44V25.53C2.4,28.43,4,30,6.86,30Z"/></g><g id="Ultralight-S-11" data-name="Ultralight-S"><path class="cls-12" d="M6.86,79.85H37.43c2.92,0,4.44-1.59,4.44-4.44V54.32c0-2.88-1.52-4.45-4.44-4.45H6.86C4,49.87,2.4,51.42,2.4,54.32V75.41C2.4,78.3,4,79.85,6.86,79.85Z"/></g><text class="cls-13" transform="translate(9.05 69.05)">RED</text></g></g></svg>