<svg xmlns="http://www.w3.org/2000/svg" xmlns:xlink="http://www.w3.org/1999/xlink" viewBox="0 0 280.44 121.59"><defs><style>.cls-1{opacity:0.62;}.cls-2,.cls-3{fill:none;stroke-miterlimit:10;stroke-width:0.75px;}.cls-2{stroke:url(#linear-gradient);}.cls-3{stroke:url(#linear-gradient-2);}</style><linearGradient id="linear-gradient" x1="147.72" y1="129.98" x2="125.01" y2="23.1" gradientUnits="userSpaceOnUse"><stop offset="0" stop-color="#fff"/><stop offset="0.51" stop-color="#1c1c1e"/><stop offset="0.97" stop-color="#fff"/></linearGradient><linearGradient id="linear-gradient-2" x1="120.96" y1="61.67" x2="114.52" y2="31.4" xlink:href="#linear-gradient"/></defs><g id="Layer_2" data-name="Layer 2"><g id="Layer_1-2" data-name="Layer 1"><g class="cls-1"><path class="cls-2" d="M280.05,98l-.63-9.74a3.93,3.93,0,0,0-3.93-3.69H169L237.17,6.5a3.44,3.44,0,0,0-.34-4.87l-.48-.42a3.44,3.44,0,0,0-4.74.23l-11.8,12.37-21.93,7.72-26.27,9.34L119.07,49.56,66.59,68.43,40.35,77.86,21.83,84.59H4.63A4.25,4.25,0,0,0,.38,88.85v9a4.26,4.26,0,0,0,4.22,4.26l22,.15L146.5,95.34,130.4,117a2.64,2.64,0,0,0,2.11,4.21h9.67a3.7,3.7,0,0,0,3.18-1.82l14.07-23.68,93.94,6.5h22.75A3.93,3.93,0,0,0,280.05,98Zm-258-13.43,18.37-6.46,26.27-9.34L119.26,50.1l52.48-18.87L198,21.79l21.76-7.9-5.09,5.52-14,4.91-26.27,9.34L121.86,52.35,69.38,71.22,43.15,80.66,32.32,84.59Zm32.17,0,13.59-4.83,45.27-16.1,45.21-16.28,22.61-8.14L203.5,31l-22.67,8L158.2,47l-45.28,16.1L67.71,79.4,53.29,84.59H43.58l23.47-8.34,47.29-16.82,47.22-17,23.61-8.5,23.59-8.59-23.68,8.32-23.65,8.41L114.15,58.89l-47.23,17-23.61,8.5-.56.2H32.82l10.42-3.67,26.27-9.34,52.55-18.69L174.54,34l26.23-9.44,13.69-5L199,36.43l-21.72,7.63-21.72,7.72L112.06,67.22,68.67,82.85l-4.83,1.74Zm10.67,0,3.88-1.38,43.45-15.44,43.39-15.63,21.69-7.82L199,36.44l-5.47,5.93-11.85,4.08L165.71,52,133.85,63.2,102.07,74.55l-15.9,5.68-12,4.36Zm9.45,0,11.9-4.1,15.92-5.58,31.86-11.17,31.78-11.35,15.9-5.67,11.65-4.24-5,5.4-4,1.37L168.5,54.83,136.65,66,104.86,77.34,89,83l-4.33,1.57Zm10.91,0,3.78-1.3L105,77.71l31.85-11.17,31.79-11.35,15.89-5.68,3.58-1.3-4.73,5.12-8.63,3-13.53,4.77-27.06,9.54-27,9.73L95.43,84.59Zm11,0,11-3.87,27.05-9.54,27-9.73,13.49-4.87,8.39-3.08-5,5.44-5.31,1.83L160,65.3,134.3,74.38l-25.67,9.25-2.66,1Zm10.74,0,1.7-.6,25.73-9.07,25.67-9.25L173,61l5-1.83-5,5.38-4.28,1.47-11.87,4.18L133.11,78.6l-16.62,6Zm31.84,0,1-.34,16.72-6c1.9-.68,3.79-1.39,5.68-2.08l-4.61,5L148,84.59ZM157,81.94l-2.44,2.65h-5Zm5.7-6.18-6.25,2.11-16.77,5.84-2.48.88h-9.13l9-3.13,16.73-6q6.9-2.49,13.79-5Zm-9-.68-16.77,5.83-10.33,3.68h-8.74l15.48-5.45L157,70.6l11.84-4.28,3.91-1.44-5,5.45C163,71.9,158.33,73.47,153.66,75.08Z"/><polygon class="cls-3" points="63.92 65.99 116.47 47.3 168.95 28.44 195.18 19 224.14 8.48 195.09 18.73 168.82 28.07 116.27 46.76 63.79 65.63 37.56 75.07 11.35 84.59 37.65 75.33 63.92 65.99"/></g></g></g></svg>