<svg xmlns="http://www.w3.org/2000/svg" xmlns:xlink="http://www.w3.org/1999/xlink" viewBox="0 0 139.32 125.29"><defs><style>.cls-1{opacity:0.81;fill:url(#linear-gradient);}.cls-2,.cls-3{fill:none;stroke-miterlimit:10;stroke-width:0.77px;}.cls-2{stroke:#b2b2b2;}.cls-3{stroke:#333;}</style><linearGradient id="linear-gradient" x1="23.21" y1="31.84" x2="102.06" y2="93.45" gradientUnits="userSpaceOnUse"><stop offset="0" stop-color="#241f20" stop-opacity="0.51"/><stop offset="0.32" stop-color="#262223" stop-opacity="0.58"/><stop offset="0.72" stop-color="#2d2b2b" stop-opacity="0.79"/><stop offset="1" stop-color="#333"/></linearGradient></defs><g id="Layer_2" data-name="Layer 2"><g id="Layer_1-2" data-name="Layer 1"><circle class="cls-1" cx="62.64" cy="62.64" r="50.03"/><polyline class="cls-2" points="116.09 62.64 125.28 62.64 139.32 62.64"/><line class="cls-2" x1="116.04" y1="60.33" x2="125.22" y2="59.93"/><line class="cls-2" x1="115.89" y1="58.02" x2="125.05" y2="57.23"/><line class="cls-2" x1="115.64" y1="55.72" x2="124.75" y2="54.53"/><line class="cls-2" x1="115.29" y1="53.43" x2="124.34" y2="51.85"/><line class="cls-2" x1="114.84" y1="51.16" x2="123.82" y2="49.19"/><line class="cls-2" x1="114.29" y1="48.91" x2="123.18" y2="46.55"/><line class="cls-2" x1="113.65" y1="46.69" x2="122.43" y2="43.95"/><line class="cls-2" x1="112.91" y1="44.5" x2="121.56" y2="41.38"/><line class="cls-2" x1="112.08" y1="42.34" x2="120.59" y2="38.85"/><line class="cls-2" x1="111.16" y1="40.22" x2="119.5" y2="36.36"/><line class="cls-2" x1="110.14" y1="38.14" x2="118.31" y2="33.92"/><line class="cls-2" x1="109.03" y1="36.1" x2="117.01" y2="31.54"/><line class="cls-2" x1="107.84" y1="34.12" x2="115.62" y2="29.22"/><line class="cls-2" x1="106.57" y1="32.19" x2="114.12" y2="26.95"/><line class="cls-2" x1="105.21" y1="30.32" x2="112.53" y2="24.76"/><line class="cls-2" x1="103.77" y1="28.51" x2="110.84" y2="22.63"/><line class="cls-2" x1="102.25" y1="26.76" x2="109.06" y2="20.59"/><line class="cls-2" x1="100.66" y1="25.08" x2="107.2" y2="18.62"/><line class="cls-2" x1="99" y1="23.47" x2="105.25" y2="16.73"/><line class="cls-2" x1="97.27" y1="21.93" x2="103.23" y2="14.93"/><line class="cls-2" x1="95.47" y1="20.47" x2="101.12" y2="13.21"/><line class="cls-2" x1="93.62" y1="19.09" x2="98.95" y2="11.59"/><line class="cls-2" x1="91.7" y1="17.79" x2="96.7" y2="10.07"/><line class="cls-2" x1="89.73" y1="16.57" x2="94.4" y2="8.65"/><line class="cls-2" x1="87.72" y1="15.44" x2="92.03" y2="7.32"/><line class="cls-2" x1="85.65" y1="14.4" x2="89.61" y2="6.1"/><line class="cls-2" x1="83.54" y1="13.45" x2="87.13" y2="4.99"/><line class="cls-2" x1="81.39" y1="12.59" x2="84.61" y2="3.98"/><line class="cls-2" x1="79.21" y1="11.83" x2="82.06" y2="3.09"/><line class="cls-2" x1="76.99" y1="11.16" x2="79.46" y2="2.3"/><line class="cls-2" x1="74.75" y1="10.58" x2="76.83" y2="1.63"/><line class="cls-2" x1="72.48" y1="10.11" x2="74.18" y2="1.07"/><line class="cls-2" x1="70.2" y1="9.73" x2="71.5" y2="0.63"/><line class="cls-2" x1="67.9" y1="9.45" x2="68.81" y2="0.3"/><line class="cls-2" x1="65.6" y1="9.28" x2="66.1" y2="0.1"/><line class="cls-2" x1="63.28" y1="9.2" x2="63.39"/><line class="cls-2" x1="60.97" y1="9.22" x2="60.68" y2="0.03"/><line class="cls-2" x1="58.66" y1="9.34" x2="57.97" y2="0.17"/><line class="cls-2" x1="56.35" y1="9.56" x2="55.27" y2="0.43"/><line class="cls-2" x1="54.06" y1="9.89" x2="52.59" y2="0.81"/><line class="cls-2" x1="51.79" y1="10.31" x2="49.92" y2="1.3"/><line class="cls-2" x1="49.53" y1="10.83" x2="47.28" y2="1.91"/><line class="cls-2" x1="47.3" y1="11.44" x2="44.66" y2="2.63"/><line class="cls-2" x1="45.1" y1="12.15" x2="42.08" y2="3.47"/><line class="cls-2" x1="42.93" y1="12.96" x2="39.54" y2="4.41"/><line class="cls-2" x1="40.8" y1="13.86" x2="37.04" y2="5.47"/><line class="cls-2" x1="38.71" y1="14.85" x2="34.59" y2="6.63"/><line class="cls-2" x1="36.66" y1="15.93" x2="32.19" y2="7.9"/><line class="cls-2" x1="34.66" y1="17.1" x2="29.85" y2="9.27"/><line class="cls-2" x1="32.72" y1="18.35" x2="27.57" y2="10.73"/><line class="cls-2" x1="30.83" y1="19.69" x2="25.36" y2="12.3"/><line class="cls-2" x1="29" y1="21.11" x2="23.21" y2="13.96"/><line class="cls-2" x1="27.23" y1="22.6" x2="21.14" y2="15.71"/><line class="cls-2" x1="25.53" y1="24.17" x2="19.15" y2="17.55"/><line class="cls-2" x1="23.9" y1="25.81" x2="17.24" y2="19.48"/><line class="cls-2" x1="22.35" y1="27.52" x2="15.41" y2="21.48"/><line class="cls-2" x1="20.86" y1="29.3" x2="13.68" y2="23.57"/><line class="cls-2" x1="19.46" y1="31.14" x2="12.03" y2="25.72"/><line class="cls-2" x1="18.14" y1="33.04" x2="10.48" y2="27.95"/><line class="cls-2" x1="16.9" y1="34.99" x2="9.03" y2="30.24"/><line class="cls-2" x1="15.74" y1="37" x2="7.68" y2="32.59"/><line class="cls-2" x1="14.68" y1="39.05" x2="6.43" y2="35"/><line class="cls-2" x1="13.7" y1="41.15" x2="5.28" y2="37.46"/><line class="cls-2" x1="12.82" y1="43.29" x2="4.25" y2="39.96"/><line class="cls-2" x1="12.02" y1="45.47" x2="3.32" y2="42.51"/><line class="cls-2" x1="11.33" y1="47.67" x2="2.5" y2="45.1"/><line class="cls-2" x1="10.73" y1="49.91" x2="1.8" y2="47.72"/><line class="cls-2" x1="10.23" y1="52.17" x2="1.21" y2="50.36"/><line class="cls-2" x1="9.82" y1="54.44" x2="0.74" y2="53.03"/><line class="cls-2" x1="9.52" y1="56.74" x2="0.38" y2="55.72"/><line class="cls-2" x1="9.31" y1="59.04" x2="0.14" y2="58.42"/><line class="cls-2" x1="9.2" y1="61.35" x2="0.01" y2="61.13"/><line class="cls-2" x1="9.2" y1="63.67" x2="0.01" y2="63.85"/><line class="cls-2" x1="9.29" y1="65.98" x2="0.12" y2="66.56"/><line class="cls-2" x1="9.49" y1="68.29" x2="0.35" y2="69.26"/><line class="cls-2" x1="9.78" y1="70.58" x2="0.69" y2="71.95"/><line class="cls-2" x1="10.18" y1="72.86" x2="1.15" y2="74.62"/><line class="cls-2" x1="10.67" y1="75.12" x2="1.73" y2="77.27"/><line class="cls-2" x1="11.26" y1="77.36" x2="2.42" y2="79.89"/><line class="cls-2" x1="11.94" y1="79.57" x2="3.22" y2="82.48"/><line class="cls-2" x1="12.72" y1="81.75" x2="4.14" y2="85.04"/><line class="cls-2" x1="13.6" y1="83.89" x2="5.16" y2="87.55"/><line class="cls-2" x1="14.56" y1="86" x2="6.29" y2="90.01"/><line class="cls-2" x1="15.62" y1="88.06" x2="7.53" y2="92.43"/><line class="cls-2" x1="16.76" y1="90.07" x2="8.87" y2="94.78"/><line class="cls-2" x1="17.99" y1="92.03" x2="10.31" y2="97.08"/><line class="cls-2" x1="19.3" y1="93.93" x2="11.85" y2="99.31"/><line class="cls-2" x1="20.7" y1="95.78" x2="13.49" y2="101.48"/><line class="cls-2" x1="22.17" y1="97.56" x2="15.21" y2="103.57"/><line class="cls-2" x1="23.72" y1="99.28" x2="12.09" y2="110.52"/><line class="cls-3" x1="25.35" y1="100.93" x2="18.93" y2="107.52"/><line class="cls-3" x1="27.04" y1="102.51" x2="20.91" y2="109.37"/><line class="cls-3" x1="28.8" y1="104.01" x2="22.98" y2="111.13"/><line class="cls-3" x1="30.62" y1="105.44" x2="25.11" y2="112.8"/><line class="cls-3" x1="32.5" y1="106.79" x2="27.32" y2="114.38"/><line class="cls-3" x1="34.44" y1="108.05" x2="29.59" y2="115.86"/><line class="cls-3" x1="36.43" y1="109.23" x2="31.92" y2="117.24"/><line class="cls-3" x1="38.47" y1="110.32" x2="34.32" y2="118.52"/><line class="cls-3" x1="40.56" y1="111.32" x2="36.76" y2="119.69"/><line class="cls-3" x1="42.69" y1="112.23" x2="39.26" y2="120.76"/><line class="cls-3" x1="44.85" y1="113.05" x2="41.79" y2="121.72"/><line class="cls-3" x1="47.05" y1="113.77" x2="44.37" y2="122.56"/><line class="cls-3" x1="49.28" y1="114.4" x2="46.98" y2="123.3"/><line class="cls-3" x1="51.53" y1="114.93" x2="49.62" y2="123.92"/><line class="cls-3" x1="53.8" y1="115.36" x2="52.28" y2="124.42"/><line class="cls-3" x1="56.09" y1="115.69" x2="54.97" y2="124.81"/><line class="cls-3" x1="58.4" y1="115.92" x2="57.67" y2="125.09"/><line class="cls-3" x1="60.71" y1="116.06" x2="60.37" y2="125.25"/><line class="cls-3" x1="63.02" y1="116.09" x2="63.09" y2="125.28"/><line class="cls-3" x1="65.33" y1="116.02" x2="65.8" y2="125.21"/><line class="cls-3" x1="67.64" y1="115.86" x2="68.5" y2="125.01"/><line class="cls-3" x1="69.94" y1="115.59" x2="71.2" y2="124.7"/><line class="cls-3" x1="72.23" y1="115.23" x2="73.87" y2="124.27"/><line class="cls-3" x1="74.49" y1="114.76" x2="76.53" y2="123.73"/><line class="cls-3" x1="76.74" y1="114.2" x2="79.16" y2="123.07"/><line class="cls-3" x1="78.96" y1="113.54" x2="81.76" y2="122.3"/><line class="cls-3" x1="81.14" y1="112.79" x2="84.33" y2="121.41"/><line class="cls-3" x1="83.3" y1="111.94" x2="86.85" y2="120.42"/><line class="cls-3" x1="85.41" y1="111" x2="89.33" y2="119.32"/><line class="cls-3" x1="87.48" y1="109.97" x2="91.76" y2="118.11"/><line class="cls-3" x1="89.51" y1="108.85" x2="94.13" y2="116.8"/><line class="cls-3" x1="91.48" y1="107.64" x2="96.44" y2="115.38"/><line class="cls-3" x1="93.4" y1="106.35" x2="98.7" y2="113.87"/><line class="cls-3" x1="95.27" y1="104.98" x2="100.88" y2="112.26"/><line class="cls-3" x1="97.07" y1="103.53" x2="102.99" y2="110.56"/><line class="cls-3" x1="98.81" y1="102" x2="105.03" y2="108.77"/><line class="cls-3" x1="100.48" y1="100.4" x2="106.98" y2="106.89"/><line class="cls-3" x1="102.07" y1="98.72" x2="108.86" y2="104.93"/><line class="cls-3" x1="103.6" y1="96.98" x2="110.64" y2="102.89"/><line class="cls-3" x1="105.05" y1="95.18" x2="112.34" y2="100.77"/><line class="cls-3" x1="106.42" y1="93.31" x2="113.94" y2="98.59"/><line class="cls-3" x1="107.7" y1="91.39" x2="115.45" y2="96.33"/><line class="cls-3" x1="108.9" y1="89.41" x2="116.86" y2="94.01"/><line class="cls-3" x1="110.02" y1="87.38" x2="118.17" y2="91.64"/><line class="cls-3" x1="111.05" y1="85.31" x2="119.37" y2="89.21"/><line class="cls-3" x1="111.98" y1="83.19" x2="120.47" y2="86.73"/><line class="cls-3" x1="112.82" y1="81.04" x2="121.46" y2="84.2"/><line class="cls-3" x1="113.57" y1="78.85" x2="122.33" y2="81.63"/><line class="cls-3" x1="114.23" y1="76.63" x2="123.1" y2="79.03"/><line class="cls-3" x1="114.78" y1="74.38" x2="123.75" y2="76.4"/><line class="cls-3" x1="115.24" y1="72.11" x2="124.29" y2="73.74"/><line class="cls-3" x1="115.6" y1="69.83" x2="124.71" y2="71.06"/><line class="cls-3" x1="115.86" y1="67.53" x2="125.02" y2="68.37"/><line class="cls-3" x1="116.03" y1="65.22" x2="125.21" y2="65.66"/></g></g></svg>