<svg xmlns="http://www.w3.org/2000/svg" viewBox="0 0 282.36 81.54"><defs><style>.cls-1,.cls-4{opacity:0.5;}.cls-2{fill:#fff;}.cls-3{fill:none;stroke:#fff;stroke-miterlimit:10;stroke-width:0.5px;}.cls-4,.cls-5{font-size:14px;font-family:Barlow-Black, Barlow;font-weight:800;}</style></defs><g id="Layer_2" data-name="Layer 2"><g id="Layer_1-2" data-name="Layer 1"><g id="Ultralight-S" class="cls-1"><path class="cls-2" d="M69.24,31.67H99.8c2.92,0,4.45-1.59,4.45-4.45V6.14c0-2.88-1.53-4.45-4.45-4.45H69.24c-2.92,0-4.47,1.55-4.47,4.45V27.22C64.77,30.12,66.32,31.67,69.24,31.67Z"/></g><g id="Ultralight-S-2" data-name="Ultralight-S"><path class="cls-2" d="M128.61,31.67h30.57c2.92,0,4.44-1.59,4.44-4.45V6.14c0-2.88-1.52-4.45-4.44-4.45H128.61c-2.92,0-4.46,1.55-4.46,4.45V27.22C124.15,30.12,125.69,31.67,128.61,31.67Z"/></g><g id="Ultralight-S-3" data-name="Ultralight-S"><path class="cls-3" d="M127.14,33.11h33.51c3.2,0,4.87-1.74,4.87-4.87V5.12c0-3.15-1.67-4.87-4.87-4.87H127.14c-3.2,0-4.89,1.7-4.89,4.87V28.24C122.25,31.41,123.94,33.11,127.14,33.11Z"/></g><g id="Ultralight-S-4" data-name="Ultralight-S" class="cls-1"><path class="cls-2" d="M188,31.67h30.57c2.92,0,4.44-1.59,4.44-4.45V6.14c0-2.88-1.52-4.45-4.44-4.45H188c-2.92,0-4.46,1.55-4.46,4.45V27.22C183.52,30.12,185.06,31.67,188,31.67Z"/></g><g id="Ultralight-S-5" data-name="Ultralight-S" class="cls-1"><path class="cls-2" d="M247.36,31.67h30.56c2.92,0,4.44-1.59,4.44-4.45V6.14c0-2.88-1.52-4.45-4.44-4.45H247.36c-2.92,0-4.47,1.55-4.47,4.45V27.22C242.89,30.12,244.44,31.67,247.36,31.67Z"/></g><text class="cls-4" transform="translate(20.01 20.89)">M</text><g id="Ultralight-S-6" data-name="Ultralight-S" class="cls-1"><path class="cls-2" d="M69.24,81.54H99.8c2.92,0,4.45-1.59,4.45-4.44V56c0-2.88-1.53-4.44-4.45-4.44H69.24c-2.92,0-4.47,1.54-4.47,4.44V77.1C64.77,80,66.32,81.54,69.24,81.54Z"/></g><g id="Ultralight-S-7" data-name="Ultralight-S" class="cls-1"><path class="cls-2" d="M128.61,81.54h30.57c2.92,0,4.44-1.59,4.44-4.44V56c0-2.88-1.52-4.44-4.44-4.44H128.61c-2.92,0-4.46,1.54-4.46,4.44V77.1C124.15,80,125.69,81.54,128.61,81.54Z"/></g><g id="Ultralight-S-8" data-name="Ultralight-S" class="cls-1"><path class="cls-2" d="M188,81.54h30.57c2.92,0,4.44-1.59,4.44-4.44V56c0-2.88-1.52-4.44-4.44-4.44H188c-2.92,0-4.46,1.54-4.46,4.44V77.1C183.52,80,185.06,81.54,188,81.54Z"/></g><g id="Ultralight-S-9" data-name="Ultralight-S" class="cls-1"><path class="cls-2" d="M247.36,81.54h30.56c2.92,0,4.44-1.59,4.44-4.44V56c0-2.88-1.52-4.44-4.44-4.44H247.36c-2.92,0-4.47,1.54-4.47,4.44V77.1C242.89,80,244.44,81.54,247.36,81.54Z"/></g><g id="Ultralight-S-10" data-name="Ultralight-S" class="cls-1"><path class="cls-2" d="M4.47,31.67H35c2.92,0,4.44-1.59,4.44-4.45V6.14C39.47,3.26,38,1.69,35,1.69H4.47C1.55,1.69,0,3.24,0,6.14V27.22C0,30.12,1.55,31.67,4.47,31.67Z"/></g><g id="Ultralight-S-11" data-name="Ultralight-S" class="cls-1"><path class="cls-2" d="M4.6,81.54H35.16c2.92,0,4.45-1.59,4.45-4.44V56c0-2.88-1.53-4.44-4.45-4.44H4.6C1.68,51.57.13,53.11.13,56V77.1C.13,80,1.68,81.54,4.6,81.54Z"/></g><text class="cls-5" transform="translate(14.74 20.89)">M</text><text class="cls-5" transform="translate(79.2 20.89)">N</text><text class="cls-5" transform="translate(139.37 20.89)">O</text><text class="cls-5" transform="translate(200.43 20.89)">P</text><text class="cls-5" transform="translate(258.69 20.89)">Q</text><text class="cls-5" transform="translate(14.74 71.68)">R</text><text class="cls-5" transform="translate(79.2 71.68)">S</text><text class="cls-5" transform="translate(139.37 71.68)">T</text><text class="cls-5" transform="translate(198.97 71.68)">U</text><text class="cls-5" transform="translate(258.69 71.68)">V</text></g></g></svg>