<?xml version="1.0" encoding="UTF-8" standalone="no"?>
<svg
   xmlns:dc="http://purl.org/dc/elements/1.1/"
   xmlns:cc="http://creativecommons.org/ns#"
   xmlns:rdf="http://www.w3.org/1999/02/22-rdf-syntax-ns#"
   xmlns:svg="http://www.w3.org/2000/svg"
   xmlns="http://www.w3.org/2000/svg"
   xmlns:xlink="http://www.w3.org/1999/xlink"
   xmlns:sodipodi="http://sodipodi.sourceforge.net/DTD/sodipodi-0.dtd"
   xmlns:inkscape="http://www.inkscape.org/namespaces/inkscape"
   width="87.3125mm"
   height="93.780098mm"
   viewBox="0 0 87.3125 93.780098"
   version="1.1"
   id="svg8"
   inkscape:version="1.0.1 (3bc2e813f5, 2020-09-07, custom)"
   sodipodi:docname="ELight.svg">
  <defs
     id="defs2">
    <linearGradient
       x1="19.244999"
       y1="21.030804"
       x2="19.360001"
       gradientUnits="userSpaceOnUse"
       y2="44.984001"
       id="linearGradient2460">
      <stop
         offset="0"
         style="stop-color:#141e31;stop-opacity:1;"
         id="stop3602" />
      <stop
         offset="1"
         style="stop-color:#222a4e;stop-opacity:1;"
         id="stop3604" />
    </linearGradient>
    <linearGradient
       x1="45.447727"
       y1="92.539597"
       x2="45.447727"
       y2="7.0165396"
       id="ButtonShadow-0-1-1-5-9"
       gradientUnits="userSpaceOnUse"
       gradientTransform="matrix(1.0058652,0,0,0.994169,100,0)">
      <stop
         id="stop3750-8-9-3-6-4"
         style="stop-color:#000000;stop-opacity:1"
         offset="0" />
      <stop
         id="stop3752-5-6-4-2-9"
         style="stop-color:#000000;stop-opacity:0.58823532"
         offset="1" />
    </linearGradient>
    <linearGradient
       id="linearGradient3737-9">
      <stop
         id="stop3739-7"
         style="stop-color:#ffffff;stop-opacity:1"
         offset="0" />
      <stop
         id="stop3741-4"
         style="stop-color:#ffffff;stop-opacity:0"
         offset="1" />
    </linearGradient>
    <linearGradient
       id="linearGradient4046-3">
      <stop
         id="stop4048-7"
         style="stop-color:#000000;stop-opacity:1;"
         offset="0" />
      <stop
         id="stop4050-73"
         style="stop-color:#ffffff;stop-opacity:0.2"
         offset="1" />
    </linearGradient>
    <linearGradient
       id="linearGradient3668">
      <stop
         offset="0"
         style="stop-color:#000000;stop-opacity:1"
         id="stop3670" />
      <stop
         offset="1"
         style="stop-color:#000000;stop-opacity:0"
         id="stop3672" />
    </linearGradient>
    <clipPath
       id="clipPath2926">
      <rect
         style="display:inline;fill:url(#linearGradient2930);fill-opacity:1;fill-rule:nonzero;stroke:none"
         id="rect2928"
         y="6"
         x="6"
         ry="6"
         rx="6"
         height="84"
         width="84" />
    </clipPath>
    <linearGradient
       gradientUnits="userSpaceOnUse"
       xlink:href="#linearGradient3716"
       id="linearGradient3839"
       y2="30.797007"
       x2="9.2829962"
       y1="54.56599"
       x1="9.2829962" />
    <linearGradient
       id="linearGradient3716">
      <stop
         offset="0"
         style="stop-color:#c83771;stop-opacity:1"
         id="stop3718" />
      <stop
         offset="1"
         style="stop-color:#c83771;stop-opacity:0"
         id="stop3720" />
    </linearGradient>
    <linearGradient
       gradientUnits="userSpaceOnUse"
       xlink:href="#linearGradient3724"
       id="linearGradient3841"
       y2="40.421619"
       x2="16.535534"
       y1="62.394672"
       x1="16.535534" />
    <linearGradient
       id="linearGradient3724">
      <stop
         offset="0"
         style="stop-color:#d35fbc;stop-opacity:1"
         id="stop3726" />
      <stop
         offset="1"
         style="stop-color:#d35fbc;stop-opacity:0"
         id="stop3728" />
    </linearGradient>
    <linearGradient
       gradientUnits="userSpaceOnUse"
       xlink:href="#linearGradient3732"
       id="linearGradient3843"
       y2="32.08049"
       x2="22.525381"
       y1="66.206116"
       x1="22.525381" />
    <linearGradient
       id="linearGradient3732">
      <stop
         offset="0"
         style="stop-color:#8d5fd3;stop-opacity:1"
         id="stop3734" />
      <stop
         offset="1"
         style="stop-color:#8d5fd3;stop-opacity:0"
         id="stop3736" />
    </linearGradient>
    <linearGradient
       gradientUnits="userSpaceOnUse"
       xlink:href="#linearGradient3740"
       id="linearGradient3845"
       y2="23.20402"
       x2="29.77792"
       y1="54.060917"
       x1="29.77792" />
    <linearGradient
       id="linearGradient3740">
      <stop
         offset="0"
         style="stop-color:#5599ff;stop-opacity:1"
         id="stop3742" />
      <stop
         offset="1"
         style="stop-color:#5599ff;stop-opacity:0"
         id="stop3744" />
    </linearGradient>
    <linearGradient
       gradientUnits="userSpaceOnUse"
       xlink:href="#linearGradient3748"
       id="linearGradient3847"
       y2="46.717045"
       x2="37.030457"
       y1="68.960663"
       x1="37.030457" />
    <linearGradient
       id="linearGradient3748">
      <stop
         offset="0"
         style="stop-color:#37abc8;stop-opacity:1"
         id="stop3751" />
      <stop
         offset="1"
         style="stop-color:#37abc8;stop-opacity:0"
         id="stop3753" />
    </linearGradient>
    <linearGradient
       gradientUnits="userSpaceOnUse"
       xlink:href="#linearGradient3757"
       id="linearGradient3849"
       y2="37.391563"
       x2="44.282997"
       y1="64.162437"
       x1="44.282997" />
    <linearGradient
       id="linearGradient3757">
      <stop
         offset="0"
         style="stop-color:#70e4cd;stop-opacity:1"
         id="stop3759" />
      <stop
         offset="1"
         style="stop-color:#70e4cd;stop-opacity:0"
         id="stop3761" />
    </linearGradient>
    <linearGradient
       gradientUnits="userSpaceOnUse"
       xlink:href="#linearGradient3765"
       id="linearGradient3851"
       y2="12.370317"
       x2="51.282997"
       y1="60.879444"
       x1="51.282997" />
    <linearGradient
       id="linearGradient3765">
      <stop
         offset="0"
         style="stop-color:#53df53;stop-opacity:1"
         id="stop3767" />
      <stop
         offset="1"
         style="stop-color:#53df53;stop-opacity:0"
         id="stop3769" />
    </linearGradient>
    <linearGradient
       gradientUnits="userSpaceOnUse"
       xlink:href="#linearGradient3773"
       id="linearGradient3853"
       y2="27.464857"
       x2="57.525383"
       y1="65.677666"
       x1="57.525383" />
    <linearGradient
       id="linearGradient3773">
      <stop
         offset="0"
         style="stop-color:#aad400;stop-opacity:1"
         id="stop3775" />
      <stop
         offset="1"
         style="stop-color:#aad400;stop-opacity:0"
         id="stop3777" />
    </linearGradient>
    <linearGradient
       gradientUnits="userSpaceOnUse"
       xlink:href="#linearGradient3781"
       id="linearGradient3855"
       y2="35.095482"
       x2="64.777916"
       y1="63.909901"
       x1="64.777916" />
    <linearGradient
       id="linearGradient3781">
      <stop
         offset="0"
         style="stop-color:#ffd42a;stop-opacity:1"
         id="stop3783" />
      <stop
         offset="1"
         style="stop-color:#ffd42a;stop-opacity:0"
         id="stop3785" />
    </linearGradient>
    <linearGradient
       gradientUnits="userSpaceOnUse"
       xlink:href="#linearGradient3789"
       id="linearGradient3857"
       y2="18.954224"
       x2="72.788071"
       y1="60.12183"
       x1="72.788071" />
    <linearGradient
       id="linearGradient3789">
      <stop
         offset="0"
         style="stop-color:#ff992a;stop-opacity:1"
         id="stop3791" />
      <stop
         offset="1"
         style="stop-color:#ff992a;stop-opacity:0"
         id="stop3793" />
    </linearGradient>
    <linearGradient
       gradientUnits="userSpaceOnUse"
       xlink:href="#linearGradient3797"
       id="linearGradient3859"
       y2="40.421116"
       x2="78.272842"
       y1="58.354065"
       x1="78.272842" />
    <linearGradient
       id="linearGradient3797">
      <stop
         offset="0"
         style="stop-color:#ff6600;stop-opacity:1"
         id="stop3799" />
      <stop
         offset="1"
         style="stop-color:#ff6600;stop-opacity:0"
         id="stop3801" />
    </linearGradient>
    <linearGradient
       gradientUnits="userSpaceOnUse"
       xlink:href="#linearGradient3805"
       id="linearGradient3861"
       y2="34.361088"
       x2="85.525383"
       y1="60.879444"
       x1="85.525383" />
    <linearGradient
       id="linearGradient3805">
      <stop
         offset="0"
         style="stop-color:#d40000;stop-opacity:1"
         id="stop3807" />
      <stop
         offset="1"
         style="stop-color:#d40000;stop-opacity:0"
         id="stop3809" />
    </linearGradient>
    <linearGradient
       y2="5.9877172"
       x2="48"
       y1="90"
       x1="48"
       gradientUnits="userSpaceOnUse"
       id="linearGradient3171"
       xlink:href="#linearGradient3700"
       inkscape:collect="always" />
    <linearGradient
       id="linearGradient3700">
      <stop
         offset="0"
         style="stop-color:#14122a;stop-opacity:1;"
         id="stop3702" />
      <stop
         offset="1"
         style="stop-color:#12122a;stop-opacity:1;"
         id="stop3704" />
    </linearGradient>
    <clipPath
       id="clipPath2926-2">
      <rect
         style="display:inline;fill:url(#linearGradient2930);fill-opacity:1;fill-rule:nonzero;stroke:none"
         id="rect2928-1"
         y="6"
         x="6"
         ry="6"
         rx="6"
         height="84"
         width="84" />
    </clipPath>
  </defs>
  <sodipodi:namedview
     id="base"
     pagecolor="#ffffff"
     bordercolor="#666666"
     borderopacity="1.0"
     inkscape:pageopacity="0.0"
     inkscape:pageshadow="2"
     inkscape:zoom="0.35"
     inkscape:cx="267.87724"
     inkscape:cy="323.50301"
     inkscape:document-units="mm"
     inkscape:current-layer="g349"
     inkscape:document-rotation="0"
     showgrid="false"
     inkscape:window-width="1343"
     inkscape:window-height="858"
     inkscape:window-x="337"
     inkscape:window-y="0"
     inkscape:window-maximized="0" />
  <metadata
     id="metadata5">
    <rdf:RDF>
      <cc:Work
         rdf:about="">
        <dc:format>image/svg+xml</dc:format>
        <dc:type
           rdf:resource="http://purl.org/dc/dcmitype/StillImage" />
        <dc:title></dc:title>
      </cc:Work>
    </rdf:RDF>
  </metadata>
  <g
     inkscape:label="Layer 1"
     inkscape:groupmode="layer"
     id="layer1"
     transform="translate(-34.95748,-62.573162)">
    <g
       id="g349"
       transform="matrix(0.26458333,0,0,0.26458333,10.880396,41.729877)">
      <g
         id="layer1-6"
         inkscape:label="Livello 1"
         transform="translate(0,-540.36218)" />
      <g
         id="g2036"
         transform="matrix(1.1,0,0,0.44444,95.081063,256.39254)">
        <g
           id="g3712"
           style="opacity:0.4"
           transform="matrix(1.0526,0,0,1.2857,-1.2632,-13.429)" />
      </g>
      <g
         transform="translate(97.481063,231.28154)"
         id="g3541" />
      <g
         transform="translate(97.481063,231.28154)"
         id="g3536" />
      <g
         id="g4076"
         transform="translate(-605.51932,-353.96833)">
        <g
           transform="translate(-926.66758,684.38448)"
           id="g4038" />
      </g>
      <path
         style="fill:#f99930;fill-opacity:1;stroke:none"
         d="m 103.22222,323.22222 c -6.77111,0 -12.222216,5.4511 -12.222216,12.22222 v 24.44444 c 0,6.77111 5.451106,12.22222 12.222216,12.22222 h 48.88889 c 6.77111,0 12.22222,-5.45111 12.22222,-12.22222 v -24.44444 c 0,-6.77112 -5.45111,-12.22222 -12.22222,-12.22222 z"
         id="path4215"
         inkscape:connector-curvature="0" />
      <path
         style="fill:#ca0a0a;fill-opacity:1;stroke:none"
         d="m 103.22222,384.33332 c -6.77111,0 -12.222216,5.45113 -12.222216,12.22225 v 24.44444 c 0,6.77109 5.451106,12.22222 12.222216,12.22222 h 48.88889 c 6.77111,0 12.22222,-5.45113 12.22222,-12.22222 v -24.44444 c 0,-6.77112 -5.45111,-12.22225 -12.22222,-12.22225 z"
         id="path3729"
         inkscape:connector-curvature="0" />
      <path
         style="fill:#c83771;fill-opacity:1;stroke:none"
         d="m 188.77777,78.777772 c -6.77111,0 -12.22222,5.451107 -12.22222,12.222222 v 24.444446 c 0,6.77111 5.45111,12.22222 12.22222,12.22222 h 48.88889 c 6.77111,0 12.22222,-5.45111 12.22222,-12.22222 V 90.999994 c 0,-6.771115 -5.45111,-12.222222 -12.22222,-12.222222 z"
         id="path4257"
         inkscape:connector-curvature="0" />
      <path
         style="fill:#8e65cd;fill-opacity:1;stroke:none"
         d="m 188.77777,139.88888 c -6.77111,0 -12.22222,5.45113 -12.22222,12.22224 v 24.44444 c 0,6.7711 5.45111,12.22222 12.22222,12.22222 h 48.88889 c 6.77111,0 12.22222,-5.45112 12.22222,-12.22222 v -24.44444 c 0,-6.77111 -5.45111,-12.22224 -12.22222,-12.22224 z"
         id="path4255"
         inkscape:connector-curvature="0" />
      <path
         style="fill:#3ea6c1;fill-opacity:1;stroke:none"
         d="m 188.77777,201.00001 c -6.77111,0 -12.22222,5.4511 -12.22222,12.22222 v 24.44444 c 0,6.77111 5.45111,12.22222 12.22222,12.22222 h 48.88889 c 6.77111,0 12.22222,-5.45111 12.22222,-12.22222 v -24.44444 c 0,-6.77112 -5.45111,-12.22222 -12.22222,-12.22222 z"
         id="path4253"
         inkscape:connector-curvature="0" />
      <path
         style="fill:#a6ce06;fill-opacity:1;stroke:none"
         d="m 188.77777,262.11111 c -6.77111,0 -12.22222,5.45111 -12.22222,12.22222 v 24.44444 c 0,6.77112 5.45111,12.22223 12.22222,12.22223 h 48.88889 c 6.77111,0 12.22222,-5.45111 12.22222,-12.22223 v -24.44444 c 0,-6.77111 -5.45111,-12.22222 -12.22222,-12.22222 z"
         id="path4251"
         inkscape:connector-curvature="0" />
      <path
         style="fill:#f99930;fill-opacity:1;stroke:none"
         d="m 188.77777,323.22222 c -6.77111,0 -12.22222,5.4511 -12.22222,12.22222 v 24.44444 c 0,6.77111 5.45111,12.22222 12.22222,12.22222 h 48.88889 c 6.77111,0 12.22222,-5.45111 12.22222,-12.22222 v -24.44444 c 0,-6.77112 -5.45111,-12.22222 -12.22222,-12.22222 z"
         id="path4249"
         inkscape:connector-curvature="0" />
      <path
         style="fill:#ca0a0a;fill-opacity:1;stroke:none"
         d="m 188.77777,384.33332 c -6.77111,0 -12.22222,5.45113 -12.22222,12.22225 v 24.44444 c 0,6.77109 5.45111,12.22222 12.22222,12.22222 h 48.88889 c 6.77111,0 12.22222,-5.45113 12.22222,-12.22222 v -24.44444 c 0,-6.77112 -5.45111,-12.22225 -12.22222,-12.22225 z"
         id="path3731"
         inkscape:connector-curvature="0" />
      <path
         style="fill:#a6ce06;fill-opacity:1;stroke:none"
         d="m 274.33332,262.11111 c -6.77109,0 -12.22222,5.45111 -12.22222,12.22222 v 24.44444 c 0,6.77112 5.45113,12.22223 12.22222,12.22223 h 48.88891 c 6.77109,0 12.22222,-5.45111 12.22222,-12.22223 v -24.44444 c 0,-6.77111 -5.45113,-12.22222 -12.22222,-12.22222 z"
         id="path4183"
         inkscape:connector-curvature="0" />
      <path
         style="fill:#f99930;fill-opacity:1;stroke:none"
         d="m 274.33332,323.22222 c -6.77109,0 -12.22222,5.4511 -12.22222,12.22222 v 24.44444 c 0,6.77111 5.45113,12.22222 12.22222,12.22222 h 48.88891 c 6.77109,0 12.22222,-5.45111 12.22222,-12.22222 v -24.44444 c 0,-6.77112 -5.45113,-12.22222 -12.22222,-12.22222 z"
         id="path4181"
         inkscape:connector-curvature="0" />
      <path
         style="fill:#ca0a0a;fill-opacity:1;stroke:none"
         d="m 274.33332,384.33332 c -6.77109,0 -12.22222,5.45113 -12.22222,12.22225 v 24.44444 c 0,6.77109 5.45113,12.22222 12.22222,12.22222 h 48.88891 c 6.77109,0 12.22222,-5.45113 12.22222,-12.22222 v -24.44444 c 0,-6.77112 -5.45113,-12.22225 -12.22222,-12.22225 z"
         id="path3733"
         inkscape:connector-curvature="0" />
      <path
         style="fill:#3ea6c1;fill-opacity:1;stroke:none"
         d="m 359.88889,201.00001 c -6.77111,0 -12.22222,5.4511 -12.22222,12.22222 v 24.44444 c 0,6.77111 5.45111,12.22222 12.22222,12.22222 h 48.88889 c 6.77111,0 12.22222,-5.45111 12.22222,-12.22222 v -24.44444 c 0,-6.77112 -5.45111,-12.22222 -12.22222,-12.22222 z"
         id="path4287"
         inkscape:connector-curvature="0" />
      <path
         style="fill:#a6ce06;fill-opacity:1;stroke:none"
         d="m 359.88889,262.11111 c -6.77111,0 -12.22222,5.45111 -12.22222,12.22222 v 24.44444 c 0,6.77112 5.45111,12.22223 12.22222,12.22223 h 48.88889 C 415.54889,311 421,305.54889 421,298.77777 v -24.44444 c 0,-6.77111 -5.45111,-12.22222 -12.22222,-12.22222 z"
         id="path4285"
         inkscape:connector-curvature="0" />
      <path
         style="fill:#f99930;fill-opacity:1;stroke:none"
         d="m 359.88889,323.22222 c -6.77111,0 -12.22222,5.4511 -12.22222,12.22222 v 24.44444 c 0,6.77111 5.45111,12.22222 12.22222,12.22222 h 48.88889 c 6.77111,0 12.22222,-5.45111 12.22222,-12.22222 v -24.44444 c 0,-6.77112 -5.45111,-12.22222 -12.22222,-12.22222 z"
         id="path4283"
         inkscape:connector-curvature="0" />
      <path
         style="fill:#ca0a0a;fill-opacity:1;stroke:none"
         d="m 359.88889,384.33332 c -6.77111,0 -12.22222,5.45113 -12.22222,12.22225 v 24.44444 c 0,6.77109 5.45111,12.22222 12.22222,12.22222 h 48.88889 c 6.77111,0 12.22222,-5.45113 12.22222,-12.22222 v -24.44444 c 0,-6.77112 -5.45111,-12.22225 -12.22222,-12.22225 z"
         id="path3735"
         inkscape:connector-curvature="0" />
    </g>
  </g>
</svg>
