<svg xmlns="http://www.w3.org/2000/svg" viewBox="0 0 35.57 35.55"><defs><style>.cls-1{opacity:0.5;}</style></defs><g id="Layer_2" data-name="Layer 2"><g id="Layer_1-2" data-name="Layer 1"><g id="Light-S" class="cls-1"><path d="M17.78,35.55A17.88,17.88,0,0,0,35.57,17.78,17.9,17.9,0,0,0,17.78,0,17.87,17.87,0,0,0,0,17.78,17.89,17.89,0,0,0,17.78,35.55Zm0-2.63A15.15,15.15,0,1,1,33,17.78,15.09,15.09,0,0,1,17.78,32.92Zm-1.91-6.77a1.41,1.41,0,0,0,1.23-.72l8.31-13a2,2,0,0,0,.36-1,1.21,1.21,0,0,0-1.26-1.14,1.33,1.33,0,0,0-1.08.69L15.8,23.12,12,18.38a1.36,1.36,0,0,0-1.14-.63A1.2,1.2,0,0,0,9.7,19a1.73,1.73,0,0,0,.35,1l4.49,5.46A1.66,1.66,0,0,0,15.87,26.15Z"/></g></g></g></svg>