<svg xmlns="http://www.w3.org/2000/svg" viewBox="0 0 46.5 26.51"><g id="Layer_2" data-name="Layer 2"><g id="Layer_1-2" data-name="Layer 1"><g id="Ultralight-S"><path d="M21.48,26.51c.91,0,1.82-.68,1.82-2.21V13.82a1.89,1.89,0,0,0,.88,1L43.19,26a3.16,3.16,0,0,0,1.49.51c.91,0,1.82-.68,1.82-2.21V2.21C46.5.67,45.59,0,44.68,0a3.5,3.5,0,0,0-1.49.49l-19,11.19a1.89,1.89,0,0,0-.88,1V2.21C23.3.67,22.39,0,21.48,0A3.46,3.46,0,0,0,20,.49L1,11.68a1.75,1.75,0,0,0,0,3.14L20,26A3.16,3.16,0,0,0,21.48,26.51Z"/></g></g></g></svg>