<svg xmlns="http://www.w3.org/2000/svg" viewBox="0 0 35.49 38.94"><g id="Layer_2" data-name="Layer 2"><g id="Layer_1-2" data-name="Layer 1"><g id="Ultralight-S"><path d="M17.73,38.94a17.74,17.74,0,0,0,3.1-35.21V.65c0-.62-.47-.86-1-.44L14.36,4c-.49.33-.49.77,0,1.12l5.42,3.8c.58.41,1,.16,1-.45V4.8a16.69,16.69,0,1,1-11.45,2A.54.54,0,0,0,9.59,6a.5.5,0,0,0-.75-.14,17.72,17.72,0,0,0,8.89,33.05ZM12,28.32a.53.53,0,0,0,.51-.55V14.69a.58.58,0,0,0-.61-.59,1.17,1.17,0,0,0-.74.28L7.8,16.55a.52.52,0,0,0-.28.46A.48.48,0,0,0,8,17.5a.33.33,0,0,0,.27-.11l3.1-2h.09V27.77A.51.51,0,0,0,12,28.32Zm10,.33C25,28.65,27,25.79,27,21.41S25,14.13,22,14.13s-5,2.91-5,7.28S19.06,28.65,22,28.65Zm0-.95c-2.36,0-4-2.54-4-6.29s1.6-6.3,4-6.3,3.91,2.53,3.91,6.3S24.34,27.7,22,27.7Z"/></g></g></g></svg>