<svg xmlns="http://www.w3.org/2000/svg" viewBox="0 0 46.5 26.51"><g id="Layer_2" data-name="Layer 2"><g id="Layer_1-2" data-name="Layer 1"><g id="Ultralight-S"><path d="M1.82,26.51A3.09,3.09,0,0,0,3.3,26l19-11.18a1.89,1.89,0,0,0,.88-1V24.3c0,1.53.91,2.21,1.82,2.21A3.16,3.16,0,0,0,26.51,26l19-11.18a1.74,1.74,0,0,0,1-1.58,1.72,1.72,0,0,0-1-1.56L26.51.49A3.5,3.5,0,0,0,25,0c-.91,0-1.82.67-1.82,2.21V12.66a1.81,1.81,0,0,0-.88-1L3.3.49A3.42,3.42,0,0,0,1.82,0C.91,0,0,.67,0,2.21V24.3C0,25.83.91,26.51,1.82,26.51Zm.09-1.07c-.37,0-.91-.28-.91-1.14V2.21c0-.86.54-1.14.91-1.14a1.61,1.61,0,0,1,.86.28l18.8,11.08c.45.25.63.44.63.81s-.21.61-.63.84L2.77,25.16A1.55,1.55,0,0,1,1.91,25.44Zm23.2,0c-.37,0-.91-.28-.91-1.14V2.21c0-.86.54-1.14.91-1.14a1.59,1.59,0,0,1,.86.28L44.78,12.43c.44.25.62.44.62.81s-.21.61-.62.84L26,25.16A1.55,1.55,0,0,1,25.11,25.44Z"/></g></g></g></svg>