<svg xmlns="http://www.w3.org/2000/svg" viewBox="0 0 35.49 38.91"><g id="Layer_2" data-name="Layer 2"><g id="Layer_1-2" data-name="Layer 1"><g id="Ultralight-S"><path d="M17.73,38.91a17.71,17.71,0,0,0,8.92-33,.52.52,0,0,0-.77.14.58.58,0,0,0,.21.74,16.65,16.65,0,1,1-11.41-2v3.7c0,.61.45.86,1,.45l5.42-3.8c.49-.35.49-.79,0-1.12L15.71.21c-.58-.42-1-.18-1,.44V3.7a17.74,17.74,0,0,0,3.05,35.21Zm6.38-10.28c3,0,4.93-2.87,4.93-7.24s-2-7.29-4.93-7.29-5,2.91-5,7.29S21.15,28.63,24.11,28.63Zm-12.33,0c2.79,0,4.79-1.68,4.79-4a3.56,3.56,0,0,0-3.28-3.49v-.05a3.43,3.43,0,0,0,2.77-3.39c0-2.05-1.77-3.57-4.28-3.57A4.12,4.12,0,0,0,7.59,17a1.74,1.74,0,0,0,0,.44.47.47,0,0,0,.49.51c.32,0,.49-.11.51-.42a3.07,3.07,0,0,1,3.24-2.44c1.9,0,3.23,1.14,3.23,2.72a3,3,0,0,1-3.14,2.89H10.54a.44.44,0,0,0-.49.46.45.45,0,0,0,.49.47H12c2,0,3.53,1.3,3.53,3,0,1.84-1.53,3.12-3.74,3.12a3.44,3.44,0,0,1-3.52-2.42c-.09-.33-.21-.47-.53-.47a.49.49,0,0,0-.49.54,1.36,1.36,0,0,0,.07.46C7.77,27.44,9.54,28.63,11.78,28.63Zm12.33-1c-2.35,0-3.93-2.53-3.93-6.28s1.58-6.31,3.93-6.31S28,17.62,28,21.39,26.44,27.67,24.11,27.67Z"/></g></g></g></svg>