<svg xmlns="http://www.w3.org/2000/svg" viewBox="0 0 42.17 32.02"><g id="Layer_2" data-name="Layer 2"><g id="Layer_1-2" data-name="Layer 1"><g id="Ultralight-S"><path d="M4.77,32H37.42c3.12,0,4.75-1.7,4.75-4.74V4.75C42.17,1.68,40.54,0,37.42,0H4.77C1.65,0,0,1.65,0,4.75V27.28C0,30.37,1.65,32,4.77,32Zm11.4-9.19a.94.94,0,0,1-1.07-1V10.15a.93.93,0,0,1,1.07-1H18c.74,0,1.07.39,1.07,1v11.7c0,.58-.33,1-1.07,1Zm7.94,0a.93.93,0,0,1-1.05-1V10.15a.93.93,0,0,1,1.05-1H26a.93.93,0,0,1,1.07,1v11.7a.94.94,0,0,1-1.07,1Z"/></g></g></g></svg>