<svg xmlns="http://www.w3.org/2000/svg" viewBox="0 0 35.49 38.91"><g id="Layer_2" data-name="Layer 2"><g id="Layer_1-2" data-name="Layer 1"><g id="Ultralight-S"><path d="M17.73,38.91a17.71,17.71,0,0,0,8.92-33,.52.52,0,0,0-.77.14.58.58,0,0,0,.21.74,16.65,16.65,0,1,1-11.41-2v3.7c0,.61.45.86,1,.45l5.42-3.8c.49-.35.49-.79,0-1.12L15.71.21c-.58-.42-1-.18-1,.44V3.7a17.74,17.74,0,0,0,3.05,35.21ZM12,28.3a.53.53,0,0,0,.51-.56V14.66a.57.57,0,0,0-.6-.58,1.21,1.21,0,0,0-.75.28L7.84,16.53a.53.53,0,0,0-.28.46.48.48,0,0,0,.49.49.32.32,0,0,0,.28-.12l3.1-2h.09V27.74A.51.51,0,0,0,12,28.3Zm10,.33C25,28.63,27,25.76,27,21.39s-2-7.29-4.94-7.29-5,2.91-5,7.29S19.08,28.63,22.06,28.63Zm0-1c-2.35,0-3.95-2.53-3.95-6.28s1.6-6.31,3.95-6.31S26,17.62,26,21.39,24.39,27.67,22.06,27.67Z"/></g></g></g></svg>