<svg xmlns="http://www.w3.org/2000/svg" viewBox="0 0 48.62 27.86"><g id="Layer_2" data-name="Layer 2"><g id="Layer_1-2" data-name="Layer 1"><g id="Ultralight-S"><path d="M30.56,27.86h3.81c1.19,0,1.68-.49,1.68-1.7V1.68C36.05.47,35.56,0,34.37,0H30.56c-1.21,0-1.7.47-1.7,1.68V26.16C28.86,27.37,29.35,27.86,30.56,27.86Zm12.54,0h3.84c1.19,0,1.68-.49,1.68-1.7V1.68C48.62.47,48.13,0,46.94,0H43.1c-1.19,0-1.68.47-1.68,1.68V26.16C41.42,27.37,41.91,27.86,43.1,27.86Zm-41.28-.7a3.09,3.09,0,0,0,1.48-.51l19-11.17a1.78,1.78,0,0,0,1-1.59,1.72,1.72,0,0,0-1-1.56L3.3,1.16A3.2,3.2,0,0,0,1.82.65C.91.65,0,1.33,0,2.86V25C0,26.48.91,27.16,1.82,27.16Z"/></g></g></g></svg>