<svg xmlns="http://www.w3.org/2000/svg" viewBox="0 0 47.48 27.93"><g id="Layer_2" data-name="Layer 2"><g id="Layer_1-2" data-name="Layer 1"><g id="Ultralight-S"><path d="M1.82,27.21a3,3,0,0,0,1.48-.52l19-11.17a1.89,1.89,0,0,0,.88-1V25c0,1.54.91,2.22,1.82,2.22a3.07,3.07,0,0,0,1.49-.52l19-11.17a1.85,1.85,0,0,0,.88-1V27.39a.54.54,0,0,0,.54.54.55.55,0,0,0,.54-.54V.54A.54.54,0,0,0,46.94,0a.53.53,0,0,0-.54.54V13.36a1.84,1.84,0,0,0-.88-1l-19-11.17A3.16,3.16,0,0,0,25,.7c-.91,0-1.82.67-1.82,2.21V13.36a1.88,1.88,0,0,0-.88-1L3.3,1.21A3.09,3.09,0,0,0,1.82.7C.91.7,0,1.37,0,2.91V25C0,26.53.91,27.21,1.82,27.21Zm.09-1.08C1.54,26.13,1,25.86,1,25V2.91c0-.86.54-1.14.91-1.14a1.61,1.61,0,0,1,.86.28l18.8,11.08c.45.25.63.44.63.81s-.21.61-.63.84L2.77,25.86A1.52,1.52,0,0,1,1.91,26.13Zm23.2,0c-.37,0-.91-.27-.91-1.14V2.91c0-.86.54-1.14.91-1.14a1.59,1.59,0,0,1,.86.28L44.78,13.13c.44.25.62.44.62.81s-.21.61-.62.84L26,25.86A1.52,1.52,0,0,1,25.11,26.13Z"/></g></g></g></svg>