<svg xmlns="http://www.w3.org/2000/svg" viewBox="0 0 35.49 38.91"><g id="Layer_2" data-name="Layer 2"><g id="Layer_1-2" data-name="Layer 1"><g id="Ultralight-S"><path d="M17.73,38.91a17.71,17.71,0,0,0,8.92-33,.52.52,0,0,0-.77.14.58.58,0,0,0,.21.74,16.65,16.65,0,1,1-11.41-2v3.7c0,.61.45.86,1,.45l5.42-3.8c.49-.35.49-.79,0-1.12L15.71.21c-.58-.42-1-.18-1,.44V3.7a17.74,17.74,0,0,0,3.05,35.21ZM10.08,21.67H17.2v7.1a.55.55,0,1,0,1.09,0v-7.1h7.1a.57.57,0,0,0,.56-.54.56.56,0,0,0-.56-.58h-7.1v-7.1a.55.55,0,1,0-1.09,0v7.1H10.08a.55.55,0,0,0-.54.58A.57.57,0,0,0,10.08,21.67Z"/></g></g></g></svg>