<?xml version="1.0" standalone="no"?>
<!DOCTYPE svg PUBLIC "-//W3C//DTD SVG 20010904//EN" "http://www.w3.org/TR/2001/REC-SVG-20010904/DTD/svg10.dtd">
<!-- Created using Karbon, part of Calligra: http://www.calligra.org/karbon -->
<svg xmlns="http://www.w3.org/2000/svg" xmlns:xlink="http://www.w3.org/1999/xlink" width="550pt" height="841pt">
<defs/>
<g id="Layer_2">
  <g id="Layer_1-2" transform="translate(-12.1073, -18.8199)" fill="none">
   <g id="Ultralight-S" transform="" fill="none">
    <path id="shape0" transform="matrix(19.3717 0 0 29.6377 12.1073 18.5236)" fill="#8595a1" d="M16.2517 21.2567C25.2335 21.26 32.5184 16.503 32.5217 10.6323C32.5251 4.76169 25.2458 0.00110391 16.2639 1.9195e-07C7.28211 -0.00110352 1.42701e-06 4.75769 0 10.6283C0.0401128 16.485 7.29134 21.2272 16.2517 21.2567ZM16.2517 20.6576C7.8086 20.6576 0.961769 16.1868 0.953363 10.6683C0.944957 5.14972 7.77815 0.670061 16.2212 0.659048C24.6643 0.648034 31.5248 5.10983 31.5501 10.6283C31.5501 16.1508 24.7008 20.6276 16.2517 20.6276ZM22.5947 11.1616C22.8576 11.0733 23.0229 10.8964 23.0229 10.7032C23.0229 10.5101 22.8576 10.3332 22.5947 10.2449L13.016 6.3806C12.4569 6.17091 11.7969 6.35065 11.7969 6.72809L11.7969 14.5885C11.7969 14.966 12.4569 15.1457 13.016 14.936Z"/>
   </g>
  </g>
 </g>
</svg>
